<?xml version="1.0" encoding="utf-8"?>
<svg version="1.1" id="Layer_1" xmlns="http://www.w3.org/2000/svg" xmlns:xlink="http://www.w3.org/1999/xlink" x="0px" y="0px"
	 viewBox="0 0 39.9 39" enable-background="new 0 0 39.9 39" xml:space="preserve">
<g id="XMLID_1683_">
	<path id="XMLID_1692_" fill="#2563eb" d="M20.2,38.6L20.2,38.6c-10.5,0-19-8.5-19-19v0c0-10.5,8.5-19,19-19l0,0
		c10.5,0,19,8.5,19,19v0C39.2,30,30.7,38.6,20.2,38.6z"/>
	<g id="XMLID_1684_">
		<path id="XMLID_1689_" fill="#FFFFFF" d="M20.2,11c2.8,0,3.1,0,4.2,0.1c1,0,1.6,0.2,1.9,0.4c0.5,0.2,0.8,0.4,1.2,0.8
			c0.4,0.4,0.6,0.7,0.8,1.2c0.1,0.4,0.3,0.9,0.4,1.9c0.1,1.1,0.1,1.4,0.1,4.2s0,3.1-0.1,4.2c0,1-0.2,1.6-0.4,1.9
			c-0.2,0.5-0.4,0.8-0.8,1.2c-0.4,0.4-0.7,0.6-1.2,0.8c-0.4,0.1-0.9,0.3-1.9,0.4c-1.1,0.1-1.4,0.1-4.2,0.1c-2.8,0-3.1,0-4.2-0.1
			c-1,0-1.6-0.2-1.9-0.4c-0.5-0.2-0.8-0.4-1.2-0.8c-0.4-0.4-0.6-0.7-0.8-1.2c-0.1-0.4-0.3-0.9-0.4-1.9c-0.1-1.1-0.1-1.4-0.1-4.2
			s0-3.1,0.1-4.2c0-1,0.2-1.6,0.4-1.9c0.2-0.5,0.4-0.8,0.8-1.2c0.4-0.4,0.7-0.6,1.2-0.8c0.4-0.1,0.9-0.3,1.9-0.4
			C17,11,17.4,11,20.2,11 M20.2,9.1c-2.8,0-3.2,0-4.3,0.1c-1.1,0.1-1.9,0.2-2.5,0.5c-0.7,0.3-1.3,0.6-1.8,1.2
			c-0.6,0.6-0.9,1.2-1.2,1.8c-0.3,0.7-0.4,1.4-0.5,2.5c-0.1,1.1-0.1,1.5-0.1,4.3c0,2.8,0,3.2,0.1,4.3c0.1,1.1,0.2,1.9,0.5,2.5
			c0.3,0.7,0.6,1.3,1.2,1.8c0.6,0.6,1.2,0.9,1.8,1.2c0.7,0.3,1.4,0.4,2.5,0.5C17,30,17.3,30,20.2,30c2.8,0,3.2,0,4.3-0.1
			c1.1-0.1,1.9-0.2,2.5-0.5c0.7-0.3,1.3-0.6,1.8-1.2c0.6-0.6,0.9-1.2,1.2-1.8c0.3-0.7,0.4-1.4,0.5-2.5c0.1-1.1,0.1-1.5,0.1-4.3
			c0-2.8,0-3.2-0.1-4.3c-0.1-1.1-0.2-1.9-0.5-2.5c-0.3-0.7-0.6-1.3-1.2-1.8c-0.6-0.6-1.2-0.9-1.8-1.2c-0.7-0.3-1.4-0.4-2.5-0.5
			C23.3,9.1,23,9.1,20.2,9.1"/>
		<path id="XMLID_1686_" fill="#FFFFFF" d="M20.2,14.2c-3,0-5.4,2.4-5.4,5.4c0,3,2.4,5.4,5.4,5.4c3,0,5.4-2.4,5.4-5.4
			C25.5,16.6,23.1,14.2,20.2,14.2 M20.2,23c-1.9,0-3.5-1.6-3.5-3.5c0-1.9,1.6-3.5,3.5-3.5s3.5,1.6,3.5,3.5
			C23.6,21.5,22.1,23,20.2,23"/>
		<path id="XMLID_1685_" fill="#FFFFFF" d="M27,14c0,0.7-0.6,1.3-1.3,1.3c-0.7,0-1.3-0.6-1.3-1.3c0-0.7,0.6-1.3,1.3-1.3
			C26.4,12.7,27,13.3,27,14"/>
	</g>
</g>
</svg>
